<?xml version="1.0" encoding="UTF-8"?> <!DOCTYPE svg PUBLIC '-//W3C//DTD SVG 1.1//EN' 'http://www.w3.org/Graphics/SVG/1.1/DTD/svg11.dtd'> <svg width="800px" height="800px" clip-rule="evenodd" fill-rule="evenodd" stroke-linejoin="round" stroke-miterlimit="2" version="1.1" viewBox="0 0 64 64" xml:space="preserve" xmlns="http://www.w3.org/2000/svg" xmlns:serif="http://www.serif.com/"> <rect x="-64" y="-64" width="1280" height="800" fill="none"/> <g serif:id="Icons"> <g fill-rule="nonzero"> <path d="m19.186 16.493v-1.992c0.043-3.346 2.865-6.296 6.277-6.427 3.072-0.04 10.144-0.04 13.216 0 3.346 0.129 6.233 3.012 6.277 6.427v1.992h9.106v4h-4.442v29.11c-0.043 3.348-2.865 6.296-6.278 6.428-7.462 0.095-14.926 2e-3 -22.39 2e-3 -3.396-0.044-6.385-2.96-6.429-6.43v-29.11h-4.443v-4h9.106zm26.434 4h-27.099c-0.014 9.72-0.122 19.441 2e-3 29.16 0.049 1.25 1.125 2.33 2.379 2.379 7.446 0.095 14.893 0.095 22.338 0 1.273-0.049 2.363-1.163 2.38-2.455v-29.084zm-4.701-4c-0.014-0.83 0-1.973 0-1.973s-0.059-2.418-2.343-2.447c-3.003-0.039-10.007-0.039-13.01 0-1.273 0.049-2.363 1.162-2.38 2.454v1.966h17.733z"/> <rect x="22.58" y="28.099" width="3" height="16.327"/> <rect x="30.571" y="28.099" width="3" height="16.327"/> <rect x="38.58" y="28.099" width="3" height="16.327"/> </g> </g> </svg>